<?xml version="1.0" encoding="UTF-8" standalone="no"?>
<!DOCTYPE svg PUBLIC "-//W3C//DTD SVG 1.1//EN"
 "http://www.w3.org/Graphics/SVG/1.1/DTD/svg11.dtd">
<!-- Generated by graphviz version 14.1.1 (20251213.1925)
 -->
<!-- Title: bme680_gas_read Pages: 1 -->
<svg width="273pt" height="266pt"
 viewBox="0.00 0.00 273.00 266.00" xmlns="http://www.w3.org/2000/svg" xmlns:xlink="http://www.w3.org/1999/xlink">
<g id="graph0" class="graph" transform="scale(1 1) rotate(0) translate(4 262)">
<title>bme680_gas_read</title>
<!-- Node1 -->
<g id="Node000001" class="node">
<title>Node1</title>
<g id="a_Node000001"><a xlink:title="gas example read">
<polygon fill="#999999" stroke="#666666" points="95.5,-139 0,-139 0,-119 95.5,-119 95.5,-139"/>
<text xml:space="preserve" text-anchor="middle" x="47.75" y="-125.5" font-family="Helvetica,sans-Serif" font-size="10.00">bme680_gas_read</text>
</a>
</g>
</g>
<!-- Node2 -->
<g id="Node000002" class="node">
<title>Node2</title>
<g id="a_Node000002"><a xlink:href="group__bme680__base__driver.html#ga09075fc7d3ca24caec29ce8d3b25c278" target="_top" xlink:title="convert the gas wait to the register raw data">
<polygon fill="white" stroke="#666666" points="264.12,-258 131.88,-258 131.88,-226 264.12,-226 264.12,-258"/>
<text xml:space="preserve" text-anchor="start" x="139.88" y="-244.5" font-family="Helvetica,sans-Serif" font-size="10.00">bme680_gas_wait_convert</text>
<text xml:space="preserve" text-anchor="middle" x="198" y="-232.5" font-family="Helvetica,sans-Serif" font-size="10.00">_to_register</text>
</a>
</g>
</g>
<!-- Node1&#45;&gt;Node2 -->
<g id="edge1_Node000001_Node000002" class="edge">
<title>Node1&#45;&gt;Node2</title>
<g id="a_edge1_Node000001_Node000002"><a xlink:title=" ">
<path fill="none" stroke="#63b8ff" d="M56.02,-139.39C69.16,-157.49 98.57,-194.94 131.5,-217 133.28,-218.19 135.13,-219.34 137.02,-220.45"/>
<polygon fill="#63b8ff" stroke="#63b8ff" points="134.99,-223.33 145.48,-224.88 138.25,-217.14 134.99,-223.33"/>
</a>
</g>
</g>
<!-- Node3 -->
<g id="Node000003" class="node">
<title>Node3</title>
<g id="a_Node000003"><a xlink:href="group__bme680__base__driver.html#ga0bf84b6c7c56b5e774cc681f342e82d4" target="_top" xlink:title="read the temperature pressure humidity and gas resistance">
<polygon fill="white" stroke="#666666" points="235.25,-208 160.75,-208 160.75,-188 235.25,-188 235.25,-208"/>
<text xml:space="preserve" text-anchor="middle" x="198" y="-194.5" font-family="Helvetica,sans-Serif" font-size="10.00">bme680_read</text>
</a>
</g>
</g>
<!-- Node1&#45;&gt;Node3 -->
<g id="edge2_Node000001_Node000003" class="edge">
<title>Node1&#45;&gt;Node3</title>
<g id="a_edge2_Node000001_Node000003"><a xlink:title=" ">
<path fill="none" stroke="#63b8ff" d="M63.36,-139.45C79.42,-150.54 106.29,-167.95 131.5,-179 137.19,-181.49 143.31,-183.76 149.43,-185.8"/>
<polygon fill="#63b8ff" stroke="#63b8ff" points="148.33,-189.12 158.92,-188.75 150.41,-182.44 148.33,-189.12"/>
</a>
</g>
</g>
<!-- Node4 -->
<g id="Node000004" class="node">
<title>Node4</title>
<g id="a_Node000004"><a xlink:href="group__bme680__base__driver.html#gae491fa03c71b661adb64d29b80e7e7d7" target="_top" xlink:title="convert the resistance heater to the register raw data">
<polygon fill="white" stroke="#666666" points="264.5,-170 131.5,-170 131.5,-138 264.5,-138 264.5,-170"/>
<text xml:space="preserve" text-anchor="start" x="139.5" y="-156.5" font-family="Helvetica,sans-Serif" font-size="10.00">bme680_resistance_heater</text>
<text xml:space="preserve" text-anchor="middle" x="198" y="-144.5" font-family="Helvetica,sans-Serif" font-size="10.00">_convert_to_register</text>
</a>
</g>
</g>
<!-- Node1&#45;&gt;Node4 -->
<g id="edge3_Node000001_Node000004" class="edge">
<title>Node1&#45;&gt;Node4</title>
<g id="a_edge3_Node000001_Node000004"><a xlink:title=" ">
<path fill="none" stroke="#63b8ff" d="M95.66,-136.91C103.41,-138.22 111.63,-139.6 119.9,-141"/>
<polygon fill="#63b8ff" stroke="#63b8ff" points="119.23,-144.43 129.67,-142.65 120.39,-137.53 119.23,-144.43"/>
</a>
</g>
</g>
<!-- Node5 -->
<g id="Node000005" class="node">
<title>Node5</title>
<g id="a_Node000005"><a xlink:href="group__bme680__base__driver.html#ga35d39c94d62edfd490f21d5b14529652" target="_top" xlink:title="set convert index">
<polygon fill="white" stroke="#666666" points="251.38,-120 144.62,-120 144.62,-88 251.38,-88 251.38,-120"/>
<text xml:space="preserve" text-anchor="start" x="152.62" y="-106.5" font-family="Helvetica,sans-Serif" font-size="10.00">bme680_set_convert</text>
<text xml:space="preserve" text-anchor="middle" x="198" y="-94.5" font-family="Helvetica,sans-Serif" font-size="10.00">_index</text>
</a>
</g>
</g>
<!-- Node1&#45;&gt;Node5 -->
<g id="edge4_Node000001_Node000005" class="edge">
<title>Node1&#45;&gt;Node5</title>
<g id="a_edge4_Node000001_Node000005"><a xlink:title=" ">
<path fill="none" stroke="#63b8ff" d="M95.66,-121.09C107.48,-119.1 120.37,-116.92 132.88,-114.81"/>
<polygon fill="#63b8ff" stroke="#63b8ff" points="133.44,-118.27 142.72,-113.15 132.28,-111.37 133.44,-118.27"/>
</a>
</g>
</g>
<!-- Node6 -->
<g id="Node000006" class="node">
<title>Node6</title>
<g id="a_Node000006"><a xlink:href="group__bme680__base__driver.html#ga7b4346081943a6e0dad37f6b2d874c95" target="_top" xlink:title="set gas wait">
<polygon fill="white" stroke="#666666" points="254.75,-70 141.25,-70 141.25,-50 254.75,-50 254.75,-70"/>
<text xml:space="preserve" text-anchor="middle" x="198" y="-56.5" font-family="Helvetica,sans-Serif" font-size="10.00">bme680_set_gas_wait</text>
</a>
</g>
</g>
<!-- Node1&#45;&gt;Node6 -->
<g id="edge5_Node000001_Node000006" class="edge">
<title>Node1&#45;&gt;Node6</title>
<g id="a_edge5_Node000001_Node000006"><a xlink:title=" ">
<path fill="none" stroke="#63b8ff" d="M63.36,-118.55C79.42,-107.46 106.29,-90.05 131.5,-79 135.53,-77.23 139.78,-75.58 144.08,-74.04"/>
<polygon fill="#63b8ff" stroke="#63b8ff" points="145.02,-77.42 153.4,-70.94 142.81,-70.78 145.02,-77.42"/>
</a>
</g>
</g>
<!-- Node7 -->
<g id="Node000007" class="node">
<title>Node7</title>
<g id="a_Node000007"><a xlink:href="group__bme680__base__driver.html#gaac39e4f7b13a44e767cd410589fdb692" target="_top" xlink:title="set resistance heater">
<polygon fill="white" stroke="#666666" points="257.75,-32 138.25,-32 138.25,0 257.75,0 257.75,-32"/>
<text xml:space="preserve" text-anchor="start" x="146.25" y="-18.5" font-family="Helvetica,sans-Serif" font-size="10.00">bme680_set_resistance</text>
<text xml:space="preserve" text-anchor="middle" x="198" y="-6.5" font-family="Helvetica,sans-Serif" font-size="10.00">_heater</text>
</a>
</g>
</g>
<!-- Node1&#45;&gt;Node7 -->
<g id="edge6_Node000001_Node000007" class="edge">
<title>Node1&#45;&gt;Node7</title>
<g id="a_edge6_Node000001_Node000007"><a xlink:title=" ">
<path fill="none" stroke="#63b8ff" d="M56.02,-118.61C69.16,-100.51 98.57,-63.06 131.5,-41 133.28,-39.81 135.13,-38.66 137.02,-37.55"/>
<polygon fill="#63b8ff" stroke="#63b8ff" points="138.25,-40.86 145.48,-33.12 134.99,-34.67 138.25,-40.86"/>
</a>
</g>
</g>
</g>
</svg>
