<?xml version="1.0" encoding="UTF-8" standalone="no"?>
<!DOCTYPE svg PUBLIC "-//W3C//DTD SVG 1.1//EN"
 "http://www.w3.org/Graphics/SVG/1.1/DTD/svg11.dtd">
<!-- Generated by graphviz version 13.1.0 (20250701.0955)
 -->
<!-- Title: bme680_basic_deinit Pages: 1 -->
<svg width="261pt" height="66pt"
 viewBox="0.00 0.00 261.00 66.00" xmlns="http://www.w3.org/2000/svg" xmlns:xlink="http://www.w3.org/1999/xlink">
<g id="graph0" class="graph" transform="scale(1 1) rotate(0) translate(4 62)">
<title>bme680_basic_deinit</title>
<!-- Node1 -->
<g id="Node000001" class="node">
<title>Node1</title>
<g id="a_Node000001"><a xlink:title="basic example deinit">
<polygon fill="#999999" stroke="#666666" points="107.5,-39 0,-39 0,-19 107.5,-19 107.5,-39"/>
<text xml:space="preserve" text-anchor="middle" x="53.75" y="-25.5" font-family="Helvetica,sans-Serif" font-size="10.00">bme680_basic_deinit</text>
</a>
</g>
</g>
<!-- Node2 -->
<g id="Node000002" class="node">
<title>Node2</title>
<g id="a_Node000002"><a xlink:href="group__bme680__base__driver.html#ga110ab55a448776f47ee345caacc54401" target="_top" xlink:title="close the chip">
<polygon fill="white" stroke="#666666" points="237.5,-58 158.5,-58 158.5,-38 237.5,-38 237.5,-58"/>
<text xml:space="preserve" text-anchor="middle" x="198" y="-44.5" font-family="Helvetica,sans-Serif" font-size="10.00">bme680_deinit</text>
</a>
</g>
</g>
<!-- Node1&#45;&gt;Node2 -->
<g id="edge1_Node000001_Node000002" class="edge">
<title>Node1&#45;&gt;Node2</title>
<g id="a_edge1_Node000001_Node000002"><a xlink:title=" ">
<path fill="none" stroke="#63b8ff" d="M107.72,-36.07C120.54,-37.79 134.2,-39.61 146.89,-41.31"/>
<polygon fill="#63b8ff" stroke="#63b8ff" points="146.34,-44.76 156.71,-42.62 147.26,-37.83 146.34,-44.76"/>
</a>
</g>
</g>
<!-- Node3 -->
<g id="Node000003" class="node">
<title>Node3</title>
<g id="a_Node000003"><a xlink:href="group__bme680__base__driver.html#ga2171cbc8a6971152543af66d78f93378" target="_top" xlink:title="enable or disable heat off">
<polygon fill="white" stroke="#666666" points="252.5,-20 143.5,-20 143.5,0 252.5,0 252.5,-20"/>
<text xml:space="preserve" text-anchor="middle" x="198" y="-6.5" font-family="Helvetica,sans-Serif" font-size="10.00">bme680_set_heat_off</text>
</a>
</g>
</g>
<!-- Node1&#45;&gt;Node3 -->
<g id="edge2_Node000001_Node000003" class="edge">
<title>Node1&#45;&gt;Node3</title>
<g id="a_edge2_Node000001_Node000003"><a xlink:title=" ">
<path fill="none" stroke="#63b8ff" d="M107.72,-21.93C115.56,-20.88 123.71,-19.79 131.76,-18.71"/>
<polygon fill="#63b8ff" stroke="#63b8ff" points="132.09,-22.2 141.54,-17.41 131.16,-15.26 132.09,-22.2"/>
</a>
</g>
</g>
</g>
</svg>
