<?xml version="1.0" encoding="UTF-8" standalone="no"?>
<!DOCTYPE svg PUBLIC "-//W3C//DTD SVG 1.1//EN"
 "http://www.w3.org/Graphics/SVG/1.1/DTD/svg11.dtd">
<!-- Generated by graphviz version 13.1.0 (20250701.0955)
 -->
<!-- Title: bme680_gas_read Pages: 1 -->
<svg width="283pt" height="342pt"
 viewBox="0.00 0.00 283.00 342.00" xmlns="http://www.w3.org/2000/svg" xmlns:xlink="http://www.w3.org/1999/xlink">
<g id="graph0" class="graph" transform="scale(1 1) rotate(0) translate(4 338)">
<title>bme680_gas_read</title>
<!-- Node1 -->
<g id="Node000001" class="node">
<title>Node1</title>
<g id="a_Node000001"><a xlink:title="gas example read">
<polygon fill="#999999" stroke="#666666" points="95.5,-165 0,-165 0,-145 95.5,-145 95.5,-165"/>
<text xml:space="preserve" text-anchor="middle" x="47.75" y="-151.5" font-family="Helvetica,sans-Serif" font-size="10.00">bme680_gas_read</text>
</a>
</g>
</g>
<!-- Node2 -->
<g id="Node000002" class="node">
<title>Node2</title>
<g id="a_Node000002"><a xlink:href="group__bme680__base__driver.html#ga09075fc7d3ca24caec29ce8d3b25c278" target="_top" xlink:title="convert the gas wait to the register raw data">
<polygon fill="white" stroke="#666666" points="269.38,-334 137.12,-334 137.12,-302 269.38,-302 269.38,-334"/>
<text xml:space="preserve" text-anchor="start" x="145.12" y="-320.5" font-family="Helvetica,sans-Serif" font-size="10.00">bme680_gas_wait_convert</text>
<text xml:space="preserve" text-anchor="middle" x="203.25" y="-308.5" font-family="Helvetica,sans-Serif" font-size="10.00">_to_register</text>
</a>
</g>
</g>
<!-- Node1&#45;&gt;Node2 -->
<g id="edge1_Node000001_Node000002" class="edge">
<title>Node1&#45;&gt;Node2</title>
<g id="a_edge1_Node000001_Node000002"><a xlink:title=" ">
<path fill="none" stroke="#63b8ff" d="M52.14,-165.3C61.03,-190.72 87.37,-256.94 131.5,-293 132.63,-293.93 133.81,-294.82 135.01,-295.68"/>
<polygon fill="#63b8ff" stroke="#63b8ff" points="133.12,-298.63 143.47,-300.89 136.79,-292.67 133.12,-298.63"/>
</a>
</g>
</g>
<!-- Node3 -->
<g id="Node000003" class="node">
<title>Node3</title>
<g id="a_Node000003"><a xlink:href="group__bme680__base__driver.html#gaaa90bfb68ab9accfe6446d8d932c7487" target="_top" xlink:title="convert the idac heat to the register raw data">
<polygon fill="white" stroke="#666666" points="270.88,-284 135.62,-284 135.62,-252 270.88,-252 270.88,-284"/>
<text xml:space="preserve" text-anchor="start" x="143.62" y="-270.5" font-family="Helvetica,sans-Serif" font-size="10.00">bme680_idac_heat_convert</text>
<text xml:space="preserve" text-anchor="middle" x="203.25" y="-258.5" font-family="Helvetica,sans-Serif" font-size="10.00">_to_register</text>
</a>
</g>
</g>
<!-- Node1&#45;&gt;Node3 -->
<g id="edge2_Node000001_Node000003" class="edge">
<title>Node1&#45;&gt;Node3</title>
<g id="a_edge2_Node000001_Node000003"><a xlink:title=" ">
<path fill="none" stroke="#63b8ff" d="M55.97,-165.48C69.02,-183.7 98.3,-221.35 131.5,-243 133.34,-244.2 135.25,-245.35 137.2,-246.45"/>
<polygon fill="#63b8ff" stroke="#63b8ff" points="135.45,-249.49 145.95,-250.89 138.61,-243.24 135.45,-249.49"/>
</a>
</g>
</g>
<!-- Node4 -->
<g id="Node000004" class="node">
<title>Node4</title>
<g id="a_Node000004"><a xlink:href="group__bme680__base__driver.html#ga0bf84b6c7c56b5e774cc681f342e82d4" target="_top" xlink:title="read the temperature pressure humidity and gas resistance">
<polygon fill="white" stroke="#666666" points="240.5,-234 166,-234 166,-214 240.5,-214 240.5,-234"/>
<text xml:space="preserve" text-anchor="middle" x="203.25" y="-220.5" font-family="Helvetica,sans-Serif" font-size="10.00">bme680_read</text>
</a>
</g>
</g>
<!-- Node1&#45;&gt;Node4 -->
<g id="edge3_Node000001_Node000004" class="edge">
<title>Node1&#45;&gt;Node4</title>
<g id="a_edge3_Node000001_Node000004"><a xlink:title=" ">
<path fill="none" stroke="#63b8ff" d="M63.03,-165.35C79.01,-176.51 106.02,-194.14 131.5,-205 138.82,-208.12 146.78,-210.85 154.64,-213.19"/>
<polygon fill="#63b8ff" stroke="#63b8ff" points="153.57,-216.53 164.14,-215.84 155.45,-209.78 153.57,-216.53"/>
</a>
</g>
</g>
<!-- Node5 -->
<g id="Node000005" class="node">
<title>Node5</title>
<g id="a_Node000005"><a xlink:href="group__bme680__base__driver.html#ga8ca082e7ec11af2187e09831b695f7cc" target="_top" xlink:title="convert the resistance heat to the register raw data">
<polygon fill="white" stroke="#666666" points="265.62,-196 140.88,-196 140.88,-164 265.62,-164 265.62,-196"/>
<text xml:space="preserve" text-anchor="start" x="148.88" y="-182.5" font-family="Helvetica,sans-Serif" font-size="10.00">bme680_resistance_heat</text>
<text xml:space="preserve" text-anchor="middle" x="203.25" y="-170.5" font-family="Helvetica,sans-Serif" font-size="10.00">_convert_to_register</text>
</a>
</g>
</g>
<!-- Node1&#45;&gt;Node5 -->
<g id="edge4_Node000001_Node000005" class="edge">
<title>Node1&#45;&gt;Node5</title>
<g id="a_edge4_Node000001_Node000005"><a xlink:title=" ">
<path fill="none" stroke="#63b8ff" d="M95.64,-162.64C106.4,-164.39 118.08,-166.29 129.64,-168.17"/>
<polygon fill="#63b8ff" stroke="#63b8ff" points="128.72,-171.57 139.15,-169.72 129.85,-164.66 128.72,-171.57"/>
</a>
</g>
</g>
<!-- Node6 -->
<g id="Node000006" class="node">
<title>Node6</title>
<g id="a_Node000006"><a xlink:href="group__bme680__base__driver.html#ga35d39c94d62edfd490f21d5b14529652" target="_top" xlink:title="set convert index">
<polygon fill="white" stroke="#666666" points="256.62,-146 149.88,-146 149.88,-114 256.62,-114 256.62,-146"/>
<text xml:space="preserve" text-anchor="start" x="157.88" y="-132.5" font-family="Helvetica,sans-Serif" font-size="10.00">bme680_set_convert</text>
<text xml:space="preserve" text-anchor="middle" x="203.25" y="-120.5" font-family="Helvetica,sans-Serif" font-size="10.00">_index</text>
</a>
</g>
</g>
<!-- Node1&#45;&gt;Node6 -->
<g id="edge5_Node000001_Node000006" class="edge">
<title>Node1&#45;&gt;Node6</title>
<g id="a_edge5_Node000001_Node000006"><a xlink:title=" ">
<path fill="none" stroke="#63b8ff" d="M95.64,-147.36C109.07,-145.18 123.94,-142.75 138.21,-140.43"/>
<polygon fill="#63b8ff" stroke="#63b8ff" points="138.68,-143.9 147.99,-138.84 137.55,-136.99 138.68,-143.9"/>
</a>
</g>
</g>
<!-- Node7 -->
<g id="Node000007" class="node">
<title>Node7</title>
<g id="a_Node000007"><a xlink:href="group__bme680__base__driver.html#ga7b4346081943a6e0dad37f6b2d874c95" target="_top" xlink:title="set gas wait">
<polygon fill="white" stroke="#666666" points="260,-96 146.5,-96 146.5,-76 260,-76 260,-96"/>
<text xml:space="preserve" text-anchor="middle" x="203.25" y="-82.5" font-family="Helvetica,sans-Serif" font-size="10.00">bme680_set_gas_wait</text>
</a>
</g>
</g>
<!-- Node1&#45;&gt;Node7 -->
<g id="edge6_Node000001_Node000007" class="edge">
<title>Node1&#45;&gt;Node7</title>
<g id="a_edge6_Node000001_Node000007"><a xlink:title=" ">
<path fill="none" stroke="#63b8ff" d="M63.03,-144.65C79.01,-133.49 106.02,-115.86 131.5,-105 135.84,-103.15 140.42,-101.43 145.06,-99.86"/>
<polygon fill="#63b8ff" stroke="#63b8ff" points="146.02,-103.22 154.5,-96.88 143.91,-96.55 146.02,-103.22"/>
</a>
</g>
</g>
<!-- Node8 -->
<g id="Node000008" class="node">
<title>Node8</title>
<g id="a_Node000008"><a xlink:href="group__bme680__base__driver.html#ga35b89542e92ffdea3c9aaba1c47da6dd" target="_top" xlink:title="set idac heat">
<polygon fill="white" stroke="#666666" points="261.5,-58 145,-58 145,-38 261.5,-38 261.5,-58"/>
<text xml:space="preserve" text-anchor="middle" x="203.25" y="-44.5" font-family="Helvetica,sans-Serif" font-size="10.00">bme680_set_idac_heat</text>
</a>
</g>
</g>
<!-- Node1&#45;&gt;Node8 -->
<g id="edge7_Node000001_Node000008" class="edge">
<title>Node1&#45;&gt;Node8</title>
<g id="a_edge7_Node000001_Node000008"><a xlink:title=" ">
<path fill="none" stroke="#63b8ff" d="M55.6,-144.55C68.29,-126.02 97.31,-87.46 131.5,-67 133.98,-65.51 136.58,-64.14 139.26,-62.88"/>
<polygon fill="#63b8ff" stroke="#63b8ff" points="140.57,-66.12 148.48,-59.07 137.9,-59.65 140.57,-66.12"/>
</a>
</g>
</g>
<!-- Node9 -->
<g id="Node000009" class="node">
<title>Node9</title>
<g id="a_Node000009"><a xlink:href="group__bme680__base__driver.html#ga74d890e23c1f5b8eeebbd0443a59814d" target="_top" xlink:title="set resistance heat">
<polygon fill="white" stroke="#666666" points="275,-20 131.5,-20 131.5,0 275,0 275,-20"/>
<text xml:space="preserve" text-anchor="middle" x="203.25" y="-6.5" font-family="Helvetica,sans-Serif" font-size="10.00">bme680_set_resistance_heat</text>
</a>
</g>
</g>
<!-- Node1&#45;&gt;Node9 -->
<g id="edge8_Node000001_Node000009" class="edge">
<title>Node1&#45;&gt;Node9</title>
<g id="a_edge8_Node000001_Node000009"><a xlink:title=" ">
<path fill="none" stroke="#63b8ff" d="M52.52,-144.68C61.91,-120.52 88.66,-59.98 131.5,-29 133.28,-27.71 135.14,-26.52 137.06,-25.4"/>
<polygon fill="#63b8ff" stroke="#63b8ff" points="138.32,-28.68 145.74,-21.13 135.23,-22.4 138.32,-28.68"/>
</a>
</g>
</g>
</g>
</svg>
