<?xml version="1.0" encoding="UTF-8" standalone="no"?>
<!DOCTYPE svg PUBLIC "-//W3C//DTD SVG 1.1//EN"
 "http://www.w3.org/Graphics/SVG/1.1/DTD/svg11.dtd">
<!-- Generated by graphviz version 13.1.0 (20250701.0955)
 -->
<!-- Title: bme680_basic_init Pages: 1 -->
<svg width="282pt" height="922pt"
 viewBox="0.00 0.00 282.00 922.00" xmlns="http://www.w3.org/2000/svg" xmlns:xlink="http://www.w3.org/1999/xlink">
<g id="graph0" class="graph" transform="scale(1 1) rotate(0) translate(4 918)">
<title>bme680_basic_init</title>
<!-- Node1 -->
<g id="Node000001" class="node">
<title>Node1</title>
<g id="a_Node000001"><a xlink:title="basic example init">
<polygon fill="#999999" stroke="#666666" points="97,-464 0,-464 0,-444 97,-444 97,-464"/>
<text xml:space="preserve" text-anchor="middle" x="48.5" y="-450.5" font-family="Helvetica,sans-Serif" font-size="10.00">bme680_basic_init</text>
</a>
</g>
</g>
<!-- Node2 -->
<g id="Node000002" class="node">
<title>Node2</title>
<g id="a_Node000002"><a xlink:href="group__bme680__base__driver.html#ga110ab55a448776f47ee345caacc54401" target="_top" xlink:title="close the chip">
<polygon fill="white" stroke="#666666" points="242.75,-914 163.75,-914 163.75,-894 242.75,-894 242.75,-914"/>
<text xml:space="preserve" text-anchor="middle" x="203.25" y="-900.5" font-family="Helvetica,sans-Serif" font-size="10.00">bme680_deinit</text>
</a>
</g>
</g>
<!-- Node1&#45;&gt;Node2 -->
<g id="edge1_Node000001_Node000002" class="edge">
<title>Node1&#45;&gt;Node2</title>
<g id="a_edge1_Node000001_Node000002"><a xlink:title=" ">
<path fill="none" stroke="#63b8ff" d="M50.07,-464.44C53.5,-524.04 73.43,-820.7 133,-885 138.29,-890.71 145.13,-894.77 152.44,-897.64"/>
<polygon fill="#63b8ff" stroke="#63b8ff" points="151.33,-900.96 161.92,-900.59 153.41,-894.28 151.33,-900.96"/>
</a>
</g>
</g>
<!-- Node3 -->
<g id="Node000003" class="node">
<title>Node3</title>
<g id="a_Node000003"><a xlink:href="group__bme680__base__driver.html#ga8e03663efbac8803a9731067a8706a47" target="_top" xlink:title="initialize the chip">
<polygon fill="white" stroke="#666666" points="237.5,-876 169,-876 169,-856 237.5,-856 237.5,-876"/>
<text xml:space="preserve" text-anchor="middle" x="203.25" y="-862.5" font-family="Helvetica,sans-Serif" font-size="10.00">bme680_init</text>
</a>
</g>
</g>
<!-- Node1&#45;&gt;Node3 -->
<g id="edge2_Node000001_Node000003" class="edge">
<title>Node1&#45;&gt;Node3</title>
<g id="a_edge2_Node000001_Node000003"><a xlink:title=" ">
<path fill="none" stroke="#63b8ff" d="M50.26,-464.25C54.62,-520.27 78.2,-788.9 133,-847 139.64,-854.04 148.62,-858.56 157.91,-861.43"/>
<polygon fill="#63b8ff" stroke="#63b8ff" points="156.82,-864.77 167.37,-863.75 158.49,-857.97 156.82,-864.77"/>
</a>
</g>
</g>
<!-- Node4 -->
<g id="Node000004" class="node">
<title>Node4</title>
<g id="a_Node000004"><a xlink:href="group__bme680__interface__driver.html#ga29b45e1ce7340dde865ac78ce03f8b30" target="_top" xlink:title="interface print format data">
<polygon fill="white" stroke="#666666" points="265.62,-838 140.88,-838 140.88,-806 265.62,-806 265.62,-838"/>
<text xml:space="preserve" text-anchor="start" x="148.88" y="-824.5" font-family="Helvetica,sans-Serif" font-size="10.00">bme680_interface_debug</text>
<text xml:space="preserve" text-anchor="middle" x="203.25" y="-812.5" font-family="Helvetica,sans-Serif" font-size="10.00">_print</text>
</a>
</g>
</g>
<!-- Node1&#45;&gt;Node4 -->
<g id="edge3_Node000001_Node000004" class="edge">
<title>Node1&#45;&gt;Node4</title>
<g id="a_edge3_Node000001_Node000004"><a xlink:title=" ">
<path fill="none" stroke="#63b8ff" d="M50.68,-464.21C56.82,-515.58 86.53,-745.24 133,-797 133.36,-797.4 133.73,-797.8 134.11,-798.19"/>
<polygon fill="#63b8ff" stroke="#63b8ff" points="131.8,-800.83 141.73,-804.53 136.28,-795.45 131.8,-800.83"/>
</a>
</g>
</g>
<!-- Node5 -->
<g id="Node000005" class="node">
<title>Node5</title>
<g id="a_Node000005"><a xlink:href="group__bme680__interface__driver.html#ga835cedbbbf50a9617952835ef561c24a" target="_top" xlink:title="interface delay ms">
<polygon fill="white" stroke="#666666" points="273.5,-788 133,-788 133,-768 273.5,-768 273.5,-788"/>
<text xml:space="preserve" text-anchor="middle" x="203.25" y="-774.5" font-family="Helvetica,sans-Serif" font-size="10.00">bme680_interface_delay_ms</text>
</a>
</g>
</g>
<!-- Node1&#45;&gt;Node5 -->
<g id="edge4_Node000001_Node000005" class="edge">
<title>Node1&#45;&gt;Node5</title>
<g id="a_edge4_Node000001_Node000005"><a xlink:title=" ">
<path fill="none" stroke="#63b8ff" d="M48.96,-464.44C47.32,-507.49 47.04,-672.99 133,-759 133.75,-759.75 134.53,-760.48 135.33,-761.17"/>
<polygon fill="#63b8ff" stroke="#63b8ff" points="133.26,-763.99 143.49,-766.75 137.21,-758.21 133.26,-763.99"/>
</a>
</g>
</g>
<!-- Node6 -->
<g id="Node000006" class="node">
<title>Node6</title>
<g id="a_Node000006"><a xlink:href="group__bme680__interface__driver.html#gaaae094c2f3a9b51a67e726dc5c47c7c6" target="_top" xlink:title="interface iic bus deinit">
<polygon fill="white" stroke="#666666" points="257.38,-750 149.12,-750 149.12,-718 257.38,-718 257.38,-750"/>
<text xml:space="preserve" text-anchor="start" x="157.12" y="-736.5" font-family="Helvetica,sans-Serif" font-size="10.00">bme680_interface_iic</text>
<text xml:space="preserve" text-anchor="middle" x="203.25" y="-724.5" font-family="Helvetica,sans-Serif" font-size="10.00">_deinit</text>
</a>
</g>
</g>
<!-- Node1&#45;&gt;Node6 -->
<g id="edge5_Node000001_Node000006" class="edge">
<title>Node1&#45;&gt;Node6</title>
<g id="a_edge5_Node000001_Node000006"><a xlink:title=" ">
<path fill="none" stroke="#63b8ff" d="M49.8,-464.37C51.45,-502.45 62.28,-636.12 133,-709 134.99,-711.05 137.15,-712.93 139.45,-714.65"/>
<polygon fill="#63b8ff" stroke="#63b8ff" points="137.27,-717.42 147.6,-719.78 141,-711.49 137.27,-717.42"/>
</a>
</g>
</g>
<!-- Node7 -->
<g id="Node000007" class="node">
<title>Node7</title>
<g id="a_Node000007"><a xlink:href="group__bme680__interface__driver.html#ga2a9cc0af20321cfc7f31ed43696e9865" target="_top" xlink:title="interface iic bus init">
<polygon fill="white" stroke="#666666" points="266.38,-700 140.12,-700 140.12,-680 266.38,-680 266.38,-700"/>
<text xml:space="preserve" text-anchor="middle" x="203.25" y="-686.5" font-family="Helvetica,sans-Serif" font-size="10.00">bme680_interface_iic_init</text>
</a>
</g>
</g>
<!-- Node1&#45;&gt;Node7 -->
<g id="edge6_Node000001_Node000007" class="edge">
<title>Node1&#45;&gt;Node7</title>
<g id="a_edge6_Node000001_Node000007"><a xlink:title=" ">
<path fill="none" stroke="#63b8ff" d="M50.29,-464.43C53.49,-499.29 68.65,-612.76 133,-671 134.07,-671.96 135.18,-672.88 136.32,-673.75"/>
<polygon fill="#63b8ff" stroke="#63b8ff" points="134.14,-676.52 144.49,-678.77 137.8,-670.55 134.14,-676.52"/>
</a>
</g>
</g>
<!-- Node8 -->
<g id="Node000008" class="node">
<title>Node8</title>
<g id="a_Node000008"><a xlink:href="group__bme680__interface__driver.html#ga6b96ab54864bfbc8a307a1fe34ac0ead" target="_top" xlink:title="interface iic bus read">
<polygon fill="white" stroke="#666666" points="269.38,-662 137.12,-662 137.12,-642 269.38,-642 269.38,-662"/>
<text xml:space="preserve" text-anchor="middle" x="203.25" y="-648.5" font-family="Helvetica,sans-Serif" font-size="10.00">bme680_interface_iic_read</text>
</a>
</g>
</g>
<!-- Node1&#45;&gt;Node8 -->
<g id="edge7_Node000001_Node000008" class="edge">
<title>Node1&#45;&gt;Node8</title>
<g id="a_edge7_Node000001_Node000008"><a xlink:title=" ">
<path fill="none" stroke="#63b8ff" d="M51.21,-464.32C56.84,-494.99 77.71,-586.33 133,-633 134.28,-634.08 135.62,-635.1 137,-636.06"/>
<polygon fill="#63b8ff" stroke="#63b8ff" points="134.98,-638.94 145.4,-640.86 138.45,-632.86 134.98,-638.94"/>
</a>
</g>
</g>
<!-- Node9 -->
<g id="Node000009" class="node">
<title>Node9</title>
<g id="a_Node000009"><a xlink:href="group__bme680__interface__driver.html#gaacc5677bb06d2db46351b610096ff487" target="_top" xlink:title="interface iic bus write">
<polygon fill="white" stroke="#666666" points="257.38,-624 149.12,-624 149.12,-592 257.38,-592 257.38,-624"/>
<text xml:space="preserve" text-anchor="start" x="157.12" y="-610.5" font-family="Helvetica,sans-Serif" font-size="10.00">bme680_interface_iic</text>
<text xml:space="preserve" text-anchor="middle" x="203.25" y="-598.5" font-family="Helvetica,sans-Serif" font-size="10.00">_write</text>
</a>
</g>
</g>
<!-- Node1&#45;&gt;Node9 -->
<g id="edge8_Node000001_Node000009" class="edge">
<title>Node1&#45;&gt;Node9</title>
<g id="a_edge8_Node000001_Node000009"><a xlink:title=" ">
<path fill="none" stroke="#63b8ff" d="M53.45,-464.32C63.21,-488.54 90.81,-549.48 133,-583 134.95,-584.55 137.01,-586.01 139.14,-587.38"/>
<polygon fill="#63b8ff" stroke="#63b8ff" points="137.15,-590.28 147.58,-592.12 140.58,-584.18 137.15,-590.28"/>
</a>
</g>
</g>
<!-- Node10 -->
<g id="Node000010" class="node">
<title>Node10</title>
<g id="a_Node000010"><a xlink:href="group__bme680__interface__driver.html#gacb652ba4e6ee00157d5741ed3abb6736" target="_top" xlink:title="interface spi bus deinit">
<polygon fill="white" stroke="#666666" points="258.88,-574 147.62,-574 147.62,-542 258.88,-542 258.88,-574"/>
<text xml:space="preserve" text-anchor="start" x="155.62" y="-560.5" font-family="Helvetica,sans-Serif" font-size="10.00">bme680_interface_spi</text>
<text xml:space="preserve" text-anchor="middle" x="203.25" y="-548.5" font-family="Helvetica,sans-Serif" font-size="10.00">_deinit</text>
</a>
</g>
</g>
<!-- Node1&#45;&gt;Node10 -->
<g id="edge9_Node000001_Node000010" class="edge">
<title>Node1&#45;&gt;Node10</title>
<g id="a_edge9_Node000001_Node000010"><a xlink:title=" ">
<path fill="none" stroke="#63b8ff" d="M57.95,-464.39C71.96,-481 101.57,-513.64 133,-533 135,-534.23 137.07,-535.41 139.18,-536.55"/>
<polygon fill="#63b8ff" stroke="#63b8ff" points="137.49,-539.62 148.01,-540.86 140.56,-533.33 137.49,-539.62"/>
</a>
</g>
</g>
<!-- Node11 -->
<g id="Node000011" class="node">
<title>Node11</title>
<g id="a_Node000011"><a xlink:href="group__bme680__interface__driver.html#ga941322963ff00588e4f275d6c33f5e67" target="_top" xlink:title="interface spi bus init">
<polygon fill="white" stroke="#666666" points="267.88,-524 138.62,-524 138.62,-504 267.88,-504 267.88,-524"/>
<text xml:space="preserve" text-anchor="middle" x="203.25" y="-510.5" font-family="Helvetica,sans-Serif" font-size="10.00">bme680_interface_spi_init</text>
</a>
</g>
</g>
<!-- Node1&#45;&gt;Node11 -->
<g id="edge10_Node000001_Node000011" class="edge">
<title>Node1&#45;&gt;Node11</title>
<g id="a_edge10_Node000001_Node000011"><a xlink:title=" ">
<path fill="none" stroke="#63b8ff" d="M68.28,-464.5C84.91,-473.48 110.04,-486.3 133,-495 137.98,-496.89 143.23,-498.68 148.52,-500.34"/>
<polygon fill="#63b8ff" stroke="#63b8ff" points="147.33,-503.64 157.91,-503.16 149.34,-496.93 147.33,-503.64"/>
</a>
</g>
</g>
<!-- Node12 -->
<g id="Node000012" class="node">
<title>Node12</title>
<g id="a_Node000012"><a xlink:href="group__bme680__interface__driver.html#ga07d8455ba5d01974be9bec92eb7f2bfa" target="_top" xlink:title="interface spi bus read">
<polygon fill="white" stroke="#666666" points="270.88,-486 135.62,-486 135.62,-466 270.88,-466 270.88,-486"/>
<text xml:space="preserve" text-anchor="middle" x="203.25" y="-472.5" font-family="Helvetica,sans-Serif" font-size="10.00">bme680_interface_spi_read</text>
</a>
</g>
</g>
<!-- Node1&#45;&gt;Node12 -->
<g id="edge11_Node000001_Node000012" class="edge">
<title>Node1&#45;&gt;Node12</title>
<g id="a_edge11_Node000001_Node000012"><a xlink:title=" ">
<path fill="none" stroke="#63b8ff" d="M97.41,-460.9C105.84,-462.11 114.81,-463.41 123.81,-464.7"/>
<polygon fill="#63b8ff" stroke="#63b8ff" points="123.31,-468.17 133.71,-466.13 124.31,-461.24 123.31,-468.17"/>
</a>
</g>
</g>
<!-- Node13 -->
<g id="Node000013" class="node">
<title>Node13</title>
<g id="a_Node000013"><a xlink:href="group__bme680__interface__driver.html#ga32a5142e99841a6db3633d8c2bb2e394" target="_top" xlink:title="interface spi bus write">
<polygon fill="white" stroke="#666666" points="258.88,-448 147.62,-448 147.62,-416 258.88,-416 258.88,-448"/>
<text xml:space="preserve" text-anchor="start" x="155.62" y="-434.5" font-family="Helvetica,sans-Serif" font-size="10.00">bme680_interface_spi</text>
<text xml:space="preserve" text-anchor="middle" x="203.25" y="-422.5" font-family="Helvetica,sans-Serif" font-size="10.00">_write</text>
</a>
</g>
</g>
<!-- Node1&#45;&gt;Node13 -->
<g id="edge12_Node000001_Node000013" class="edge">
<title>Node1&#45;&gt;Node13</title>
<g id="a_edge12_Node000001_Node000013"><a xlink:title=" ">
<path fill="none" stroke="#63b8ff" d="M97.41,-447.1C109.66,-445.34 123.05,-443.41 136.04,-441.54"/>
<polygon fill="#63b8ff" stroke="#63b8ff" points="136.41,-445.02 145.81,-440.13 135.42,-438.09 136.41,-445.02"/>
</a>
</g>
</g>
<!-- Node14 -->
<g id="Node000014" class="node">
<title>Node14</title>
<g id="a_Node000014"><a xlink:href="group__bme680__base__driver.html#gab6afc753611fbd77336a9ea022d0bf1c" target="_top" xlink:title="set the iic address pin">
<polygon fill="white" stroke="#666666" points="258.88,-398 147.62,-398 147.62,-378 258.88,-378 258.88,-398"/>
<text xml:space="preserve" text-anchor="middle" x="203.25" y="-384.5" font-family="Helvetica,sans-Serif" font-size="10.00">bme680_set_addr_pin</text>
</a>
</g>
</g>
<!-- Node1&#45;&gt;Node14 -->
<g id="edge13_Node000001_Node000014" class="edge">
<title>Node1&#45;&gt;Node14</title>
<g id="a_edge13_Node000001_Node000014"><a xlink:title=" ">
<path fill="none" stroke="#63b8ff" d="M65.23,-443.6C81.59,-433.15 108.23,-417.19 133,-407 137.53,-405.14 142.31,-403.4 147.14,-401.79"/>
<polygon fill="#63b8ff" stroke="#63b8ff" points="147.8,-405.25 156.3,-398.92 145.71,-398.57 147.8,-405.25"/>
</a>
</g>
</g>
<!-- Node15 -->
<g id="Node000015" class="node">
<title>Node15</title>
<g id="a_Node000015"><a xlink:href="group__bme680__base__driver.html#ga0979112ca41151fd130fc281a41daf7c" target="_top" xlink:title="set filter">
<polygon fill="white" stroke="#666666" points="249.88,-360 156.62,-360 156.62,-340 249.88,-340 249.88,-360"/>
<text xml:space="preserve" text-anchor="middle" x="203.25" y="-346.5" font-family="Helvetica,sans-Serif" font-size="10.00">bme680_set_filter</text>
</a>
</g>
</g>
<!-- Node1&#45;&gt;Node15 -->
<g id="edge14_Node000001_Node000015" class="edge">
<title>Node1&#45;&gt;Node15</title>
<g id="a_edge14_Node000001_Node000015"><a xlink:title=" ">
<path fill="none" stroke="#63b8ff" d="M56.74,-443.65C69.84,-425.69 99.29,-388.8 133,-369 136.99,-366.66 141.28,-364.59 145.7,-362.78"/>
<polygon fill="#63b8ff" stroke="#63b8ff" points="146.53,-366.2 154.74,-359.49 144.14,-359.62 146.53,-366.2"/>
</a>
</g>
</g>
<!-- Node16 -->
<g id="Node000016" class="node">
<title>Node16</title>
<g id="a_Node000016"><a xlink:href="group__bme680__base__driver.html#ga2171cbc8a6971152543af66d78f93378" target="_top" xlink:title="enable or disable heat off">
<polygon fill="white" stroke="#666666" points="257.75,-322 148.75,-322 148.75,-302 257.75,-302 257.75,-322"/>
<text xml:space="preserve" text-anchor="middle" x="203.25" y="-308.5" font-family="Helvetica,sans-Serif" font-size="10.00">bme680_set_heat_off</text>
</a>
</g>
</g>
<!-- Node1&#45;&gt;Node16 -->
<g id="edge15_Node000001_Node000016" class="edge">
<title>Node1&#45;&gt;Node16</title>
<g id="a_edge15_Node000001_Node000016"><a xlink:title=" ">
<path fill="none" stroke="#63b8ff" d="M53.56,-443.59C63.4,-419.8 90.81,-361.19 133,-331 134.79,-329.72 136.66,-328.53 138.59,-327.42"/>
<polygon fill="#63b8ff" stroke="#63b8ff" points="139.86,-330.69 147.31,-323.16 136.79,-324.4 139.86,-330.69"/>
</a>
</g>
</g>
<!-- Node17 -->
<g id="Node000017" class="node">
<title>Node17</title>
<g id="a_Node000017"><a xlink:href="group__bme680__base__driver.html#gae55539a698b0156b71af5bd445425e7b" target="_top" xlink:title="set humidity oversampling">
<polygon fill="white" stroke="#666666" points="258.88,-284 147.62,-284 147.62,-252 258.88,-252 258.88,-284"/>
<text xml:space="preserve" text-anchor="start" x="155.62" y="-270.5" font-family="Helvetica,sans-Serif" font-size="10.00">bme680_set_humidity</text>
<text xml:space="preserve" text-anchor="middle" x="203.25" y="-258.5" font-family="Helvetica,sans-Serif" font-size="10.00">_oversampling</text>
</a>
</g>
</g>
<!-- Node1&#45;&gt;Node17 -->
<g id="edge16_Node000001_Node000017" class="edge">
<title>Node1&#45;&gt;Node17</title>
<g id="a_edge16_Node000001_Node000017"><a xlink:title=" ">
<path fill="none" stroke="#63b8ff" d="M52.01,-443.69C59.4,-415.47 83.74,-336.16 133,-293 134.45,-291.73 135.98,-290.52 137.56,-289.37"/>
<polygon fill="#63b8ff" stroke="#63b8ff" points="139.2,-292.46 145.85,-284.21 135.51,-286.52 139.2,-292.46"/>
</a>
</g>
</g>
<!-- Node18 -->
<g id="Node000018" class="node">
<title>Node18</title>
<g id="a_Node000018"><a xlink:href="group__bme680__base__driver.html#ga2f4b50248b049af199d9140b33ff1053" target="_top" xlink:title="set the interface">
<polygon fill="white" stroke="#666666" points="259.25,-234 147.25,-234 147.25,-214 259.25,-214 259.25,-234"/>
<text xml:space="preserve" text-anchor="middle" x="203.25" y="-220.5" font-family="Helvetica,sans-Serif" font-size="10.00">bme680_set_interface</text>
</a>
</g>
</g>
<!-- Node1&#45;&gt;Node18 -->
<g id="edge17_Node000001_Node000018" class="edge">
<title>Node1&#45;&gt;Node18</title>
<g id="a_edge17_Node000001_Node000018"><a xlink:title=" ">
<path fill="none" stroke="#63b8ff" d="M50.39,-443.85C53.9,-409.94 69.93,-299.54 133,-243 134.28,-241.86 135.62,-240.78 137.01,-239.77"/>
<polygon fill="#63b8ff" stroke="#63b8ff" points="138.69,-242.84 145.53,-234.74 135.14,-236.8 138.69,-242.84"/>
</a>
</g>
</g>
<!-- Node19 -->
<g id="Node000019" class="node">
<title>Node19</title>
<g id="a_Node000019"><a xlink:href="group__bme680__base__driver.html#gac002ac0a49a5781f9bcb618fa64b69b0" target="_top" xlink:title="set mode">
<polygon fill="white" stroke="#666666" points="252.5,-196 154,-196 154,-176 252.5,-176 252.5,-196"/>
<text xml:space="preserve" text-anchor="middle" x="203.25" y="-182.5" font-family="Helvetica,sans-Serif" font-size="10.00">bme680_set_mode</text>
</a>
</g>
</g>
<!-- Node1&#45;&gt;Node19 -->
<g id="edge18_Node000001_Node000019" class="edge">
<title>Node1&#45;&gt;Node19</title>
<g id="a_edge18_Node000001_Node000019"><a xlink:title=" ">
<path fill="none" stroke="#63b8ff" d="M49.7,-443.68C51.01,-405.84 60.78,-273.3 133,-205 136.08,-202.09 139.56,-199.61 143.29,-197.51"/>
<polygon fill="#63b8ff" stroke="#63b8ff" points="144.6,-200.76 152.23,-193.41 141.68,-194.4 144.6,-200.76"/>
</a>
</g>
</g>
<!-- Node20 -->
<g id="Node000020" class="node">
<title>Node20</title>
<g id="a_Node000020"><a xlink:href="group__bme680__base__driver.html#gabdc459710e484e63d3128bf252e9e275" target="_top" xlink:title="set pressure oversampling">
<polygon fill="white" stroke="#666666" points="259.25,-158 147.25,-158 147.25,-126 259.25,-126 259.25,-158"/>
<text xml:space="preserve" text-anchor="start" x="155.25" y="-144.5" font-family="Helvetica,sans-Serif" font-size="10.00">bme680_set_pressure</text>
<text xml:space="preserve" text-anchor="middle" x="203.25" y="-132.5" font-family="Helvetica,sans-Serif" font-size="10.00">_oversampling</text>
</a>
</g>
</g>
<!-- Node1&#45;&gt;Node20 -->
<g id="edge19_Node000001_Node000020" class="edge">
<title>Node1&#45;&gt;Node20</title>
<g id="a_edge19_Node000001_Node000020"><a xlink:title=" ">
<path fill="none" stroke="#63b8ff" d="M49.35,-443.51C49.36,-402.37 54.87,-250.24 133,-167 134.51,-165.39 136.13,-163.89 137.84,-162.48"/>
<polygon fill="#63b8ff" stroke="#63b8ff" points="139.49,-165.59 145.78,-157.07 135.54,-159.81 139.49,-165.59"/>
</a>
</g>
</g>
<!-- Node21 -->
<g id="Node000021" class="node">
<title>Node21</title>
<g id="a_Node000021"><a xlink:href="group__bme680__base__driver.html#ga06affada30c6730ba824f3d9620e1ca9" target="_top" xlink:title="enable or disable run gas">
<polygon fill="white" stroke="#666666" points="257.75,-108 148.75,-108 148.75,-88 257.75,-88 257.75,-108"/>
<text xml:space="preserve" text-anchor="middle" x="203.25" y="-94.5" font-family="Helvetica,sans-Serif" font-size="10.00">bme680_set_run_gas</text>
</a>
</g>
</g>
<!-- Node1&#45;&gt;Node21 -->
<g id="edge20_Node000001_Node000021" class="edge">
<title>Node1&#45;&gt;Node21</title>
<g id="a_edge20_Node000001_Node000021"><a xlink:title=" ">
<path fill="none" stroke="#63b8ff" d="M50.67,-443.55C56.65,-392.07 85.34,-165.87 133,-117 134.77,-115.19 136.69,-113.54 138.73,-112.05"/>
<polygon fill="#63b8ff" stroke="#63b8ff" points="140.17,-115.27 147.04,-107.2 136.64,-109.22 140.17,-115.27"/>
</a>
</g>
</g>
<!-- Node22 -->
<g id="Node000022" class="node">
<title>Node22</title>
<g id="a_Node000022"><a xlink:href="group__bme680__base__driver.html#gab11f7b1a029808abc4ccc522f52dba30" target="_top" xlink:title="set spi wire">
<polygon fill="white" stroke="#666666" points="258.5,-70 148,-70 148,-50 258.5,-50 258.5,-70"/>
<text xml:space="preserve" text-anchor="middle" x="203.25" y="-56.5" font-family="Helvetica,sans-Serif" font-size="10.00">bme680_set_spi_wire</text>
</a>
</g>
</g>
<!-- Node1&#45;&gt;Node22 -->
<g id="edge21_Node000001_Node000022" class="edge">
<title>Node1&#45;&gt;Node22</title>
<g id="a_edge21_Node000001_Node000022"><a xlink:title=" ">
<path fill="none" stroke="#63b8ff" d="M50.36,-443.86C55.18,-389.62 80.44,-134.18 133,-79 134.55,-77.38 136.22,-75.88 137.99,-74.52"/>
<polygon fill="#63b8ff" stroke="#63b8ff" points="139.57,-77.66 146.27,-69.45 135.92,-71.69 139.57,-77.66"/>
</a>
</g>
</g>
<!-- Node23 -->
<g id="Node000023" class="node">
<title>Node23</title>
<g id="a_Node000023"><a xlink:href="group__bme680__base__driver.html#ga1e42919eb5a1cdddf8f3f76e4e1936a9" target="_top" xlink:title="set temperature oversampling">
<polygon fill="white" stroke="#666666" points="266.38,-32 140.12,-32 140.12,0 266.38,0 266.38,-32"/>
<text xml:space="preserve" text-anchor="start" x="148.12" y="-18.5" font-family="Helvetica,sans-Serif" font-size="10.00">bme680_set_temperature</text>
<text xml:space="preserve" text-anchor="middle" x="203.25" y="-6.5" font-family="Helvetica,sans-Serif" font-size="10.00">_oversampling</text>
</a>
</g>
</g>
<!-- Node1&#45;&gt;Node23 -->
<g id="edge22_Node000001_Node000023" class="edge">
<title>Node1&#45;&gt;Node23</title>
<g id="a_edge22_Node000001_Node000023"><a xlink:title=" ">
<path fill="none" stroke="#63b8ff" d="M50.24,-443.68C54.54,-386.08 78.16,-104.55 133,-41 133.35,-40.59 133.72,-40.18 134.09,-39.79"/>
<polygon fill="#63b8ff" stroke="#63b8ff" points="136.28,-42.52 141.6,-33.36 131.72,-37.2 136.28,-42.52"/>
</a>
</g>
</g>
</g>
</svg>
