<?xml version="1.0" encoding="UTF-8" standalone="no"?>
<!DOCTYPE svg PUBLIC "-//W3C//DTD SVG 1.1//EN"
 "http://www.w3.org/Graphics/SVG/1.1/DTD/svg11.dtd">
<!-- Generated by graphviz version 13.1.0 (20250701.0955)
 -->
<!-- Title: bme680_gas_init Pages: 1 -->
<svg width="274pt" height="922pt"
 viewBox="0.00 0.00 274.00 922.00" xmlns="http://www.w3.org/2000/svg" xmlns:xlink="http://www.w3.org/1999/xlink">
<g id="graph0" class="graph" transform="scale(1 1) rotate(0) translate(4 918)">
<title>bme680_gas_init</title>
<!-- Node1 -->
<g id="Node000001" class="node">
<title>Node1</title>
<g id="a_Node000001"><a xlink:title="gas example init">
<polygon fill="#999999" stroke="#666666" points="89.5,-464 0,-464 0,-444 89.5,-444 89.5,-464"/>
<text xml:space="preserve" text-anchor="middle" x="44.75" y="-450.5" font-family="Helvetica,sans-Serif" font-size="10.00">bme680_gas_init</text>
</a>
</g>
</g>
<!-- Node2 -->
<g id="Node000002" class="node">
<title>Node2</title>
<g id="a_Node000002"><a xlink:href="group__bme680__base__driver.html#ga110ab55a448776f47ee345caacc54401" target="_top" xlink:title="close the chip">
<polygon fill="white" stroke="#666666" points="235.25,-914 156.25,-914 156.25,-894 235.25,-894 235.25,-914"/>
<text xml:space="preserve" text-anchor="middle" x="195.75" y="-900.5" font-family="Helvetica,sans-Serif" font-size="10.00">bme680_deinit</text>
</a>
</g>
</g>
<!-- Node1&#45;&gt;Node2 -->
<g id="edge1_Node000001_Node000002" class="edge">
<title>Node1&#45;&gt;Node2</title>
<g id="a_edge1_Node000001_Node000002"><a xlink:title=" ">
<path fill="none" stroke="#63b8ff" d="M46.22,-464.44C49.1,-524.01 66.3,-820.55 125.5,-885 130.77,-890.74 137.59,-894.81 144.9,-897.68"/>
<polygon fill="#63b8ff" stroke="#63b8ff" points="143.78,-901 154.37,-900.63 145.87,-894.31 143.78,-901"/>
</a>
</g>
</g>
<!-- Node3 -->
<g id="Node000003" class="node">
<title>Node3</title>
<g id="a_Node000003"><a xlink:href="group__bme680__base__driver.html#ga8e03663efbac8803a9731067a8706a47" target="_top" xlink:title="initialize the chip">
<polygon fill="white" stroke="#666666" points="230,-876 161.5,-876 161.5,-856 230,-856 230,-876"/>
<text xml:space="preserve" text-anchor="middle" x="195.75" y="-862.5" font-family="Helvetica,sans-Serif" font-size="10.00">bme680_init</text>
</a>
</g>
</g>
<!-- Node1&#45;&gt;Node3 -->
<g id="edge2_Node000001_Node000003" class="edge">
<title>Node1&#45;&gt;Node3</title>
<g id="a_edge2_Node000001_Node000003"><a xlink:title=" ">
<path fill="none" stroke="#63b8ff" d="M46.41,-464.25C50.2,-520.24 71.07,-788.76 125.5,-847 132.11,-854.07 141.08,-858.6 150.36,-861.48"/>
<polygon fill="#63b8ff" stroke="#63b8ff" points="149.28,-864.82 159.82,-863.79 150.94,-858.02 149.28,-864.82"/>
</a>
</g>
</g>
<!-- Node4 -->
<g id="Node000004" class="node">
<title>Node4</title>
<g id="a_Node000004"><a xlink:href="group__bme680__interface__driver.html#ga29b45e1ce7340dde865ac78ce03f8b30" target="_top" xlink:title="interface print format data">
<polygon fill="white" stroke="#666666" points="258.12,-838 133.38,-838 133.38,-806 258.12,-806 258.12,-838"/>
<text xml:space="preserve" text-anchor="start" x="141.38" y="-824.5" font-family="Helvetica,sans-Serif" font-size="10.00">bme680_interface_debug</text>
<text xml:space="preserve" text-anchor="middle" x="195.75" y="-812.5" font-family="Helvetica,sans-Serif" font-size="10.00">_print</text>
</a>
</g>
</g>
<!-- Node1&#45;&gt;Node4 -->
<g id="edge3_Node000001_Node000004" class="edge">
<title>Node1&#45;&gt;Node4</title>
<g id="a_edge3_Node000001_Node000004"><a xlink:title=" ">
<path fill="none" stroke="#63b8ff" d="M46.81,-464.21C52.35,-515.56 79.41,-745.13 125.5,-797 125.86,-797.41 126.23,-797.81 126.6,-798.2"/>
<polygon fill="#63b8ff" stroke="#63b8ff" points="124.28,-800.82 134.19,-804.56 128.78,-795.46 124.28,-800.82"/>
</a>
</g>
</g>
<!-- Node5 -->
<g id="Node000005" class="node">
<title>Node5</title>
<g id="a_Node000005"><a xlink:href="group__bme680__interface__driver.html#ga835cedbbbf50a9617952835ef561c24a" target="_top" xlink:title="interface delay ms">
<polygon fill="white" stroke="#666666" points="266,-788 125.5,-788 125.5,-768 266,-768 266,-788"/>
<text xml:space="preserve" text-anchor="middle" x="195.75" y="-774.5" font-family="Helvetica,sans-Serif" font-size="10.00">bme680_interface_delay_ms</text>
</a>
</g>
</g>
<!-- Node1&#45;&gt;Node5 -->
<g id="edge4_Node000001_Node000005" class="edge">
<title>Node1&#45;&gt;Node5</title>
<g id="a_edge4_Node000001_Node000005"><a xlink:title=" ">
<path fill="none" stroke="#63b8ff" d="M47.07,-464.41C53.41,-512.79 82.22,-715.2 125.5,-759 126.25,-759.76 127.02,-760.48 127.82,-761.18"/>
<polygon fill="#63b8ff" stroke="#63b8ff" points="125.73,-763.99 135.95,-766.79 129.7,-758.23 125.73,-763.99"/>
</a>
</g>
</g>
<!-- Node6 -->
<g id="Node000006" class="node">
<title>Node6</title>
<g id="a_Node000006"><a xlink:href="group__bme680__interface__driver.html#gaaae094c2f3a9b51a67e726dc5c47c7c6" target="_top" xlink:title="interface iic bus deinit">
<polygon fill="white" stroke="#666666" points="249.88,-750 141.62,-750 141.62,-718 249.88,-718 249.88,-750"/>
<text xml:space="preserve" text-anchor="start" x="149.62" y="-736.5" font-family="Helvetica,sans-Serif" font-size="10.00">bme680_interface_iic</text>
<text xml:space="preserve" text-anchor="middle" x="195.75" y="-724.5" font-family="Helvetica,sans-Serif" font-size="10.00">_deinit</text>
</a>
</g>
</g>
<!-- Node1&#45;&gt;Node6 -->
<g id="edge5_Node000001_Node000006" class="edge">
<title>Node1&#45;&gt;Node6</title>
<g id="a_edge5_Node000001_Node000006"><a xlink:title=" ">
<path fill="none" stroke="#63b8ff" d="M45.88,-464.36C46.91,-502.4 55.56,-635.96 125.5,-709 127.47,-711.06 129.63,-712.95 131.92,-714.69"/>
<polygon fill="#63b8ff" stroke="#63b8ff" points="129.72,-717.44 140.04,-719.83 133.47,-711.52 129.72,-717.44"/>
</a>
</g>
</g>
<!-- Node7 -->
<g id="Node000007" class="node">
<title>Node7</title>
<g id="a_Node000007"><a xlink:href="group__bme680__interface__driver.html#ga2a9cc0af20321cfc7f31ed43696e9865" target="_top" xlink:title="interface iic bus init">
<polygon fill="white" stroke="#666666" points="258.88,-700 132.62,-700 132.62,-680 258.88,-680 258.88,-700"/>
<text xml:space="preserve" text-anchor="middle" x="195.75" y="-686.5" font-family="Helvetica,sans-Serif" font-size="10.00">bme680_interface_iic_init</text>
</a>
</g>
</g>
<!-- Node1&#45;&gt;Node7 -->
<g id="edge6_Node000001_Node000007" class="edge">
<title>Node1&#45;&gt;Node7</title>
<g id="a_edge6_Node000001_Node000007"><a xlink:title=" ">
<path fill="none" stroke="#63b8ff" d="M46.34,-464.42C48.9,-499.24 61.96,-612.61 125.5,-671 126.56,-671.97 127.66,-672.9 128.8,-673.77"/>
<polygon fill="#63b8ff" stroke="#63b8ff" points="126.6,-676.52 136.94,-678.83 130.29,-670.58 126.6,-676.52"/>
</a>
</g>
</g>
<!-- Node8 -->
<g id="Node000008" class="node">
<title>Node8</title>
<g id="a_Node000008"><a xlink:href="group__bme680__interface__driver.html#ga6b96ab54864bfbc8a307a1fe34ac0ead" target="_top" xlink:title="interface iic bus read">
<polygon fill="white" stroke="#666666" points="261.88,-662 129.62,-662 129.62,-642 261.88,-642 261.88,-662"/>
<text xml:space="preserve" text-anchor="middle" x="195.75" y="-648.5" font-family="Helvetica,sans-Serif" font-size="10.00">bme680_interface_iic_read</text>
</a>
</g>
</g>
<!-- Node1&#45;&gt;Node8 -->
<g id="edge7_Node000001_Node000008" class="edge">
<title>Node1&#45;&gt;Node8</title>
<g id="a_edge7_Node000001_Node000008"><a xlink:title=" ">
<path fill="none" stroke="#63b8ff" d="M47.23,-464.31C52.18,-494.95 71.05,-586.22 125.5,-633 126.62,-633.96 127.78,-634.87 128.98,-635.74"/>
<polygon fill="#63b8ff" stroke="#63b8ff" points="127.11,-638.7 137.5,-640.75 130.66,-632.66 127.11,-638.7"/>
</a>
</g>
</g>
<!-- Node9 -->
<g id="Node000009" class="node">
<title>Node9</title>
<g id="a_Node000009"><a xlink:href="group__bme680__interface__driver.html#gaacc5677bb06d2db46351b610096ff487" target="_top" xlink:title="interface iic bus write">
<polygon fill="white" stroke="#666666" points="249.88,-624 141.62,-624 141.62,-592 249.88,-592 249.88,-624"/>
<text xml:space="preserve" text-anchor="start" x="149.62" y="-610.5" font-family="Helvetica,sans-Serif" font-size="10.00">bme680_interface_iic</text>
<text xml:space="preserve" text-anchor="middle" x="195.75" y="-598.5" font-family="Helvetica,sans-Serif" font-size="10.00">_write</text>
</a>
</g>
</g>
<!-- Node1&#45;&gt;Node9 -->
<g id="edge8_Node000001_Node000009" class="edge">
<title>Node1&#45;&gt;Node9</title>
<g id="a_edge8_Node000001_Node000009"><a xlink:title=" ">
<path fill="none" stroke="#63b8ff" d="M49.39,-464.32C58.42,-488.54 84.2,-549.48 125.5,-583 127.44,-584.57 129.48,-586.05 131.6,-587.43"/>
<polygon fill="#63b8ff" stroke="#63b8ff" points="129.59,-590.32 140.01,-592.22 133.05,-584.23 129.59,-590.32"/>
</a>
</g>
</g>
<!-- Node10 -->
<g id="Node000010" class="node">
<title>Node10</title>
<g id="a_Node000010"><a xlink:href="group__bme680__interface__driver.html#gacb652ba4e6ee00157d5741ed3abb6736" target="_top" xlink:title="interface spi bus deinit">
<polygon fill="white" stroke="#666666" points="251.38,-574 140.12,-574 140.12,-542 251.38,-542 251.38,-574"/>
<text xml:space="preserve" text-anchor="start" x="148.12" y="-560.5" font-family="Helvetica,sans-Serif" font-size="10.00">bme680_interface_spi</text>
<text xml:space="preserve" text-anchor="middle" x="195.75" y="-548.5" font-family="Helvetica,sans-Serif" font-size="10.00">_deinit</text>
</a>
</g>
</g>
<!-- Node1&#45;&gt;Node10 -->
<g id="edge9_Node000001_Node000010" class="edge">
<title>Node1&#45;&gt;Node10</title>
<g id="a_edge9_Node000001_Node000010"><a xlink:title=" ">
<path fill="none" stroke="#63b8ff" d="M53.72,-464.41C66.95,-481.06 95.02,-513.74 125.5,-533 127.48,-534.25 129.54,-535.46 131.65,-536.61"/>
<polygon fill="#63b8ff" stroke="#63b8ff" points="129.93,-539.66 140.44,-540.96 133.04,-533.39 129.93,-539.66"/>
</a>
</g>
</g>
<!-- Node11 -->
<g id="Node000011" class="node">
<title>Node11</title>
<g id="a_Node000011"><a xlink:href="group__bme680__interface__driver.html#ga941322963ff00588e4f275d6c33f5e67" target="_top" xlink:title="interface spi bus init">
<polygon fill="white" stroke="#666666" points="260.38,-524 131.12,-524 131.12,-504 260.38,-504 260.38,-524"/>
<text xml:space="preserve" text-anchor="middle" x="195.75" y="-510.5" font-family="Helvetica,sans-Serif" font-size="10.00">bme680_interface_spi_init</text>
</a>
</g>
</g>
<!-- Node1&#45;&gt;Node11 -->
<g id="edge10_Node000001_Node000011" class="edge">
<title>Node1&#45;&gt;Node11</title>
<g id="a_edge10_Node000001_Node000011"><a xlink:title=" ">
<path fill="none" stroke="#63b8ff" d="M63.31,-464.37C79.15,-473.4 103.3,-486.36 125.5,-495 130.4,-496.91 135.56,-498.7 140.77,-500.37"/>
<polygon fill="#63b8ff" stroke="#63b8ff" points="139.41,-503.62 150,-503.17 141.44,-496.92 139.41,-503.62"/>
</a>
</g>
</g>
<!-- Node12 -->
<g id="Node000012" class="node">
<title>Node12</title>
<g id="a_Node000012"><a xlink:href="group__bme680__interface__driver.html#ga07d8455ba5d01974be9bec92eb7f2bfa" target="_top" xlink:title="interface spi bus read">
<polygon fill="white" stroke="#666666" points="263.38,-486 128.12,-486 128.12,-466 263.38,-466 263.38,-486"/>
<text xml:space="preserve" text-anchor="middle" x="195.75" y="-472.5" font-family="Helvetica,sans-Serif" font-size="10.00">bme680_interface_spi_read</text>
</a>
</g>
</g>
<!-- Node1&#45;&gt;Node12 -->
<g id="edge11_Node000001_Node000012" class="edge">
<title>Node1&#45;&gt;Node12</title>
<g id="a_edge11_Node000001_Node000012"><a xlink:title=" ">
<path fill="none" stroke="#63b8ff" d="M89.65,-460.48C98.13,-461.73 107.26,-463.08 116.46,-464.44"/>
<polygon fill="#63b8ff" stroke="#63b8ff" points="115.78,-467.88 126.18,-465.88 116.8,-460.95 115.78,-467.88"/>
</a>
</g>
</g>
<!-- Node13 -->
<g id="Node000013" class="node">
<title>Node13</title>
<g id="a_Node000013"><a xlink:href="group__bme680__interface__driver.html#ga32a5142e99841a6db3633d8c2bb2e394" target="_top" xlink:title="interface spi bus write">
<polygon fill="white" stroke="#666666" points="251.38,-448 140.12,-448 140.12,-416 251.38,-416 251.38,-448"/>
<text xml:space="preserve" text-anchor="start" x="148.12" y="-434.5" font-family="Helvetica,sans-Serif" font-size="10.00">bme680_interface_spi</text>
<text xml:space="preserve" text-anchor="middle" x="195.75" y="-422.5" font-family="Helvetica,sans-Serif" font-size="10.00">_write</text>
</a>
</g>
</g>
<!-- Node1&#45;&gt;Node13 -->
<g id="edge12_Node000001_Node000013" class="edge">
<title>Node1&#45;&gt;Node13</title>
<g id="a_edge12_Node000001_Node000013"><a xlink:title=" ">
<path fill="none" stroke="#63b8ff" d="M89.65,-447.52C101.92,-445.71 115.54,-443.7 128.78,-441.74"/>
<polygon fill="#63b8ff" stroke="#63b8ff" points="128.91,-445.26 138.29,-440.34 127.89,-438.33 128.91,-445.26"/>
</a>
</g>
</g>
<!-- Node14 -->
<g id="Node000014" class="node">
<title>Node14</title>
<g id="a_Node000014"><a xlink:href="group__bme680__base__driver.html#gab6afc753611fbd77336a9ea022d0bf1c" target="_top" xlink:title="set the iic address pin">
<polygon fill="white" stroke="#666666" points="251.38,-398 140.12,-398 140.12,-378 251.38,-378 251.38,-398"/>
<text xml:space="preserve" text-anchor="middle" x="195.75" y="-384.5" font-family="Helvetica,sans-Serif" font-size="10.00">bme680_set_addr_pin</text>
</a>
</g>
</g>
<!-- Node1&#45;&gt;Node14 -->
<g id="edge13_Node000001_Node000014" class="edge">
<title>Node1&#45;&gt;Node14</title>
<g id="a_edge13_Node000001_Node000014"><a xlink:title=" ">
<path fill="none" stroke="#63b8ff" d="M60.7,-443.55C76.27,-433.07 101.67,-417.08 125.5,-407 129.83,-405.17 134.38,-403.47 139,-401.89"/>
<polygon fill="#63b8ff" stroke="#63b8ff" points="139.91,-405.28 148.38,-398.91 137.79,-398.6 139.91,-405.28"/>
</a>
</g>
</g>
<!-- Node15 -->
<g id="Node000015" class="node">
<title>Node15</title>
<g id="a_Node000015"><a xlink:href="group__bme680__base__driver.html#ga0979112ca41151fd130fc281a41daf7c" target="_top" xlink:title="set filter">
<polygon fill="white" stroke="#666666" points="242.38,-360 149.12,-360 149.12,-340 242.38,-340 242.38,-360"/>
<text xml:space="preserve" text-anchor="middle" x="195.75" y="-346.5" font-family="Helvetica,sans-Serif" font-size="10.00">bme680_set_filter</text>
</a>
</g>
</g>
<!-- Node1&#45;&gt;Node15 -->
<g id="edge14_Node000001_Node000015" class="edge">
<title>Node1&#45;&gt;Node15</title>
<g id="a_edge14_Node000001_Node000015"><a xlink:title=" ">
<path fill="none" stroke="#63b8ff" d="M52.55,-443.64C64.89,-425.67 92.75,-388.75 125.5,-369 129.52,-366.57 133.86,-364.45 138.34,-362.59"/>
<polygon fill="#63b8ff" stroke="#63b8ff" points="139.33,-365.96 147.52,-359.24 136.93,-359.38 139.33,-365.96"/>
</a>
</g>
</g>
<!-- Node16 -->
<g id="Node000016" class="node">
<title>Node16</title>
<g id="a_Node000016"><a xlink:href="group__bme680__base__driver.html#ga2171cbc8a6971152543af66d78f93378" target="_top" xlink:title="enable or disable heat off">
<polygon fill="white" stroke="#666666" points="250.25,-322 141.25,-322 141.25,-302 250.25,-302 250.25,-322"/>
<text xml:space="preserve" text-anchor="middle" x="195.75" y="-308.5" font-family="Helvetica,sans-Serif" font-size="10.00">bme680_set_heat_off</text>
</a>
</g>
</g>
<!-- Node1&#45;&gt;Node16 -->
<g id="edge15_Node000001_Node000016" class="edge">
<title>Node1&#45;&gt;Node16</title>
<g id="a_edge15_Node000001_Node000016"><a xlink:title=" ">
<path fill="none" stroke="#63b8ff" d="M49.49,-443.59C58.6,-419.81 84.22,-361.21 125.5,-331 127.27,-329.7 129.13,-328.49 131.05,-327.37"/>
<polygon fill="#63b8ff" stroke="#63b8ff" points="132.33,-330.64 139.74,-323.07 129.23,-324.36 132.33,-330.64"/>
</a>
</g>
</g>
<!-- Node17 -->
<g id="Node000017" class="node">
<title>Node17</title>
<g id="a_Node000017"><a xlink:href="group__bme680__base__driver.html#gae55539a698b0156b71af5bd445425e7b" target="_top" xlink:title="set humidity oversampling">
<polygon fill="white" stroke="#666666" points="251.38,-284 140.12,-284 140.12,-252 251.38,-252 251.38,-284"/>
<text xml:space="preserve" text-anchor="start" x="148.12" y="-270.5" font-family="Helvetica,sans-Serif" font-size="10.00">bme680_set_humidity</text>
<text xml:space="preserve" text-anchor="middle" x="195.75" y="-258.5" font-family="Helvetica,sans-Serif" font-size="10.00">_oversampling</text>
</a>
</g>
</g>
<!-- Node1&#45;&gt;Node17 -->
<g id="edge16_Node000001_Node000017" class="edge">
<title>Node1&#45;&gt;Node17</title>
<g id="a_edge16_Node000001_Node000017"><a xlink:title=" ">
<path fill="none" stroke="#63b8ff" d="M48,-443.7C54.7,-415.49 77.09,-336.2 125.5,-293 127.11,-291.56 128.81,-290.21 130.58,-288.93"/>
<polygon fill="#63b8ff" stroke="#63b8ff" points="131.97,-292.18 138.63,-283.95 128.28,-286.23 131.97,-292.18"/>
</a>
</g>
</g>
<!-- Node18 -->
<g id="Node000018" class="node">
<title>Node18</title>
<g id="a_Node000018"><a xlink:href="group__bme680__base__driver.html#ga2f4b50248b049af199d9140b33ff1053" target="_top" xlink:title="set the interface">
<polygon fill="white" stroke="#666666" points="251.75,-234 139.75,-234 139.75,-214 251.75,-214 251.75,-234"/>
<text xml:space="preserve" text-anchor="middle" x="195.75" y="-220.5" font-family="Helvetica,sans-Serif" font-size="10.00">bme680_set_interface</text>
</a>
</g>
</g>
<!-- Node1&#45;&gt;Node18 -->
<g id="edge17_Node000001_Node000018" class="edge">
<title>Node1&#45;&gt;Node18</title>
<g id="a_edge17_Node000001_Node000018"><a xlink:title=" ">
<path fill="none" stroke="#63b8ff" d="M46.44,-443.86C49.31,-409.98 63.24,-299.69 125.5,-243 126.77,-241.85 128.1,-240.76 129.48,-239.74"/>
<polygon fill="#63b8ff" stroke="#63b8ff" points="131.17,-242.81 137.98,-234.69 127.59,-236.79 131.17,-242.81"/>
</a>
</g>
</g>
<!-- Node19 -->
<g id="Node000019" class="node">
<title>Node19</title>
<g id="a_Node000019"><a xlink:href="group__bme680__base__driver.html#gac002ac0a49a5781f9bcb618fa64b69b0" target="_top" xlink:title="set mode">
<polygon fill="white" stroke="#666666" points="245,-196 146.5,-196 146.5,-176 245,-176 245,-196"/>
<text xml:space="preserve" text-anchor="middle" x="195.75" y="-182.5" font-family="Helvetica,sans-Serif" font-size="10.00">bme680_set_mode</text>
</a>
</g>
</g>
<!-- Node1&#45;&gt;Node19 -->
<g id="edge18_Node000001_Node000019" class="edge">
<title>Node1&#45;&gt;Node19</title>
<g id="a_edge18_Node000001_Node000019"><a xlink:title=" ">
<path fill="none" stroke="#63b8ff" d="M45.78,-443.7C46.46,-405.89 54.07,-273.48 125.5,-205 128.56,-202.07 132.03,-199.58 135.74,-197.47"/>
<polygon fill="#63b8ff" stroke="#63b8ff" points="137.05,-200.72 144.67,-193.35 134.12,-194.36 137.05,-200.72"/>
</a>
</g>
</g>
<!-- Node20 -->
<g id="Node000020" class="node">
<title>Node20</title>
<g id="a_Node000020"><a xlink:href="group__bme680__base__driver.html#gabdc459710e484e63d3128bf252e9e275" target="_top" xlink:title="set pressure oversampling">
<polygon fill="white" stroke="#666666" points="251.75,-158 139.75,-158 139.75,-126 251.75,-126 251.75,-158"/>
<text xml:space="preserve" text-anchor="start" x="147.75" y="-144.5" font-family="Helvetica,sans-Serif" font-size="10.00">bme680_set_pressure</text>
<text xml:space="preserve" text-anchor="middle" x="195.75" y="-132.5" font-family="Helvetica,sans-Serif" font-size="10.00">_oversampling</text>
</a>
</g>
</g>
<!-- Node1&#45;&gt;Node20 -->
<g id="edge19_Node000001_Node000020" class="edge">
<title>Node1&#45;&gt;Node20</title>
<g id="a_edge19_Node000001_Node000020"><a xlink:title=" ">
<path fill="none" stroke="#63b8ff" d="M45.45,-443.52C44.85,-402.42 48.14,-250.42 125.5,-167 127,-165.38 128.61,-163.87 130.31,-162.46"/>
<polygon fill="#63b8ff" stroke="#63b8ff" points="131.96,-165.57 138.23,-157.02 128,-159.8 131.96,-165.57"/>
</a>
</g>
</g>
<!-- Node21 -->
<g id="Node000021" class="node">
<title>Node21</title>
<g id="a_Node000021"><a xlink:href="group__bme680__base__driver.html#ga06affada30c6730ba824f3d9620e1ca9" target="_top" xlink:title="enable or disable run gas">
<polygon fill="white" stroke="#666666" points="250.25,-108 141.25,-108 141.25,-88 250.25,-88 250.25,-108"/>
<text xml:space="preserve" text-anchor="middle" x="195.75" y="-94.5" font-family="Helvetica,sans-Serif" font-size="10.00">bme680_set_run_gas</text>
</a>
</g>
</g>
<!-- Node1&#45;&gt;Node21 -->
<g id="edge20_Node000001_Node000021" class="edge">
<title>Node1&#45;&gt;Node21</title>
<g id="a_edge20_Node000001_Node000021"><a xlink:title=" ">
<path fill="none" stroke="#63b8ff" d="M46.8,-443.56C52.17,-392.1 78.21,-165.99 125.5,-117 127.26,-115.18 129.17,-113.53 131.21,-112.03"/>
<polygon fill="#63b8ff" stroke="#63b8ff" points="132.65,-115.24 139.5,-107.16 129.1,-109.21 132.65,-115.24"/>
</a>
</g>
</g>
<!-- Node22 -->
<g id="Node000022" class="node">
<title>Node22</title>
<g id="a_Node000022"><a xlink:href="group__bme680__base__driver.html#gab11f7b1a029808abc4ccc522f52dba30" target="_top" xlink:title="set spi wire">
<polygon fill="white" stroke="#666666" points="251,-70 140.5,-70 140.5,-50 251,-50 251,-70"/>
<text xml:space="preserve" text-anchor="middle" x="195.75" y="-56.5" font-family="Helvetica,sans-Serif" font-size="10.00">bme680_set_spi_wire</text>
</a>
</g>
</g>
<!-- Node1&#45;&gt;Node22 -->
<g id="edge21_Node000001_Node000022" class="edge">
<title>Node1&#45;&gt;Node22</title>
<g id="a_edge21_Node000001_Node000022"><a xlink:title=" ">
<path fill="none" stroke="#63b8ff" d="M46.53,-443.5C50.85,-388.53 73.43,-134.19 125.5,-79 127.04,-77.37 128.71,-75.87 130.47,-74.5"/>
<polygon fill="#63b8ff" stroke="#63b8ff" points="132.05,-77.64 138.73,-69.42 128.38,-71.68 132.05,-77.64"/>
</a>
</g>
</g>
<!-- Node23 -->
<g id="Node000023" class="node">
<title>Node23</title>
<g id="a_Node000023"><a xlink:href="group__bme680__base__driver.html#ga1e42919eb5a1cdddf8f3f76e4e1936a9" target="_top" xlink:title="set temperature oversampling">
<polygon fill="white" stroke="#666666" points="258.88,-32 132.62,-32 132.62,0 258.88,0 258.88,-32"/>
<text xml:space="preserve" text-anchor="start" x="140.62" y="-18.5" font-family="Helvetica,sans-Serif" font-size="10.00">bme680_set_temperature</text>
<text xml:space="preserve" text-anchor="middle" x="195.75" y="-6.5" font-family="Helvetica,sans-Serif" font-size="10.00">_oversampling</text>
</a>
</g>
</g>
<!-- Node1&#45;&gt;Node23 -->
<g id="edge22_Node000001_Node000023" class="edge">
<title>Node1&#45;&gt;Node23</title>
<g id="a_edge22_Node000001_Node000023"><a xlink:title=" ">
<path fill="none" stroke="#63b8ff" d="M46.39,-443.69C50.13,-386.11 71.03,-104.68 125.5,-41 125.85,-40.59 126.21,-40.18 126.58,-39.78"/>
<polygon fill="#63b8ff" stroke="#63b8ff" points="128.78,-42.51 134.07,-33.33 124.21,-37.21 128.78,-42.51"/>
</a>
</g>
</g>
</g>
</svg>
